<svg width="141" height="141" viewBox="0 0 141 141" fill="none" xmlns="http://www.w3.org/2000/svg">
<path d="M94.3099 93.4442C107.19 93.4442 117.637 82.9967 117.637 70.1167C117.637 57.2367 107.19 46.7892 94.3099 46.7892C81.4299 46.7892 70.9824 57.2367 70.9824 70.1167C70.9824 82.9967 81.4299 93.4442 94.3099 93.4442V116.772C94.3099 103.892 83.8624 93.4442 70.9824 93.4442C58.1024 93.4442 47.6549 103.892 47.6549 116.772V93.4442H70.9824V46.7717H94.3099V0.116699H47.6374V46.7892H24.3099V93.4617H0.982422V140.134H47.6549V116.807C47.6549 129.687 58.1024 140.134 70.9824 140.134C83.8624 140.134 94.3099 129.687 94.3099 116.807V140.134H140.982V93.4617H94.3099V93.4442Z" fill="#FF5601"/>
</svg>
