<svg width="141" height="141" viewBox="0 0 141 141" fill="none" xmlns="http://www.w3.org/2000/svg">
<path d="M141 0.116699H94.3274V46.7892H141V0.116699Z" fill="#8901FF"/>
<path d="M94.3274 0.116699H47.6549V46.7717H94.3274V0.116699Z" fill="#8901FF"/>
<path d="M47.6549 0.116699H0.982422V46.7892H47.6549V0.116699Z" fill="#8901FF"/>
<path d="M47.6549 46.7717H0.982422V93.4442H47.6549V46.7717Z" fill="#8901FF"/>
<path d="M140.982 46.7717H94.3274V93.4442H140.982V46.7717Z" fill="#8901FF"/>
<path d="M141 93.4442H94.3274V140.117H141V93.4442Z" fill="#8901FF"/>
<path d="M47.6549 93.4442H0.982422V140.117H47.6549V93.4442Z" fill="#8901FF"/>
<path d="M70.9824 46.7717C58.1024 46.7717 47.6549 57.2192 47.6549 70.1167V46.7717H70.9824Z" fill="#8901FF"/>
<path d="M94.3274 46.7717V70.1167C94.3274 63.6592 91.7199 57.8317 87.4849 53.6142C83.2674 49.3792 77.4399 46.7717 70.9824 46.7717H94.3274Z" fill="#8901FF"/>
</svg>
