<svg width="37" height="24" viewBox="0 0 37 24" fill="none" xmlns="http://www.w3.org/2000/svg">
<path d="M32.2302 18.4698C31.3068 19.4569 29.4937 21.0953 28.2518 20.2885C28.273 20.2935 28.2705 20.2972 28.263 20.1941C28.2568 20.0983 28.273 19.9305 28.3053 19.7428C28.6089 18.3368 29.4066 16.9905 30.1383 15.6728C31.2247 13.7696 32.443 11.9385 33.5269 10.0004C34.2486 8.67151 34.9766 7.3451 35.3636 5.83718C35.8465 4.12789 35.223 2.23833 33.2966 1.81816C31.5644 1.47754 30.1259 2.52549 28.9499 3.49389C24.7762 7.28667 21.7684 12.0653 18.0377 16.1738C17.0708 17.228 16.0927 18.3194 14.9503 19.0665C14.9976 18.9136 15.0523 18.762 15.1046 18.6215C15.4443 17.7314 15.9334 16.7866 16.4436 15.8555C18.0115 12.9976 19.913 10.1968 21.4051 7.21084C22.0609 5.76757 23.0203 4.00606 22.3172 2.33903C21.6303 0.818681 19.6791 0.688153 18.4122 1.3582C14.2099 3.45287 8.24539 12.2144 4.5918 17.8035L10.5737 1.75103H5.25134C5.33347 2.36637 5.2924 4.12043 5.12814 5.10498C4.96388 6.08954 3.15823 12.7701 1.76325 17.7302C0.368262 22.6903 0.450395 22.8543 1.06513 23.0172C1.68112 23.1813 3.32125 21.2134 3.32125 21.2134C5.6035 18.8179 7.8982 15.8294 10.1232 13.3867C11.4099 11.9633 13.2193 9.91837 14.5446 8.57082C15.9831 7.08777 17.4553 5.55748 19.1552 4.42126C19.1589 4.41878 19.1639 4.41505 19.1676 4.41256C18.9921 4.87998 18.7582 5.34864 18.5454 5.78995C17.0446 8.69265 15.2489 11.3902 13.6437 14.3215C12.7775 16.0084 11.4186 18.2709 11.6563 20.3035C11.8106 21.6895 13.1471 22.6816 14.5234 22.5473C15.8711 22.4429 17.0173 21.5677 17.9456 20.7796C22.0795 16.9768 25.1184 12.2293 28.8877 8.17924C29.8832 7.12133 30.8949 6.03484 32.0709 5.31631C31.8158 6.3593 31.2185 7.43958 30.7033 8.48504C29.7003 10.4231 28.6202 12.3512 27.6196 14.324C26.8469 15.9202 26.0131 17.5338 25.7493 19.3922C25.315 22.597 28.5716 23.5953 30.9634 22.1918C33.5294 20.6379 35.0152 17.893 36.3193 15.3198C36.5595 14.8076 36.7847 14.3016 37 13.7646L35.9348 13.2736C34.8671 15.1233 33.6588 16.9681 32.2277 18.4698H32.2302ZM19.9665 4.05205C19.9752 4.05205 19.9802 4.0533 19.9802 4.05454C19.9765 4.05454 19.9653 4.05454 19.9516 4.05205C19.9566 4.05205 19.9628 4.05205 19.9665 4.05205Z" fill="white"/>
</svg>
