<svg width="37" height="23" viewBox="0 0 37 23" fill="none" xmlns="http://www.w3.org/2000/svg">
<path d="M32.2304 17.4968C31.307 18.4838 29.4939 20.1222 28.252 19.3155C28.2731 19.3204 28.2707 19.3242 28.2632 19.221C28.257 19.1253 28.2731 18.9574 28.3055 18.7697C28.6091 17.3637 29.4068 16.0174 30.1385 14.6997C31.2249 12.7965 32.4432 10.9654 33.527 9.02733C34.2488 7.69843 34.9768 6.37201 35.3638 4.8641C35.8466 3.1548 35.2232 1.26525 33.2968 0.845072C31.5646 0.504455 30.1261 1.55241 28.9501 2.52081C24.7763 6.31359 21.7686 11.0922 18.0379 15.2007C17.0709 16.2549 16.0928 17.3463 14.9505 18.0935C14.9978 17.9406 15.0525 17.7889 15.1048 17.6484C15.4445 16.7583 15.9336 15.8136 16.4438 14.8825C18.0117 12.0245 19.9132 9.22375 21.4052 6.23776C22.061 4.79449 23.0205 3.03297 22.3174 1.36594C21.6305 -0.154402 19.6792 -0.284931 18.4124 0.385115C14.21 2.47978 8.24558 11.2413 4.59198 16.8304L10.5739 0.777943H5.25152C5.33365 1.39329 5.29259 3.14734 5.12832 4.1319C4.96406 5.11646 3.15842 11.797 1.76343 16.7571C0.368445 21.7172 0.450578 21.8813 1.06532 22.0441C1.6813 22.2082 3.32143 20.2403 3.32143 20.2403C5.60369 17.8448 7.89838 14.8564 10.1234 12.4136C11.4101 10.9902 13.2195 8.94529 14.5448 7.59774C15.9833 6.11469 17.4555 4.5844 19.1553 3.44818C19.1591 3.44569 19.164 3.44196 19.1678 3.43948C18.9923 3.90689 18.7584 4.37555 18.5456 4.81686C17.0448 7.71956 15.2491 10.4171 13.6438 13.3484C12.7777 15.0354 11.4188 17.2979 11.6565 19.3304C11.8108 20.7165 13.1473 21.7085 14.5236 21.5742C15.8713 21.4698 17.0174 20.5946 17.9458 19.8065C22.0797 16.0038 25.1186 11.2563 28.8879 7.20615C29.8834 6.14825 30.8951 5.06176 32.0711 4.34323C31.816 5.38621 31.2187 6.46649 30.7035 7.51196C29.7005 9.45 28.6203 11.3781 27.6198 13.3509C26.847 14.9471 26.0133 16.5607 25.7495 18.4192C25.3152 21.6239 28.5718 22.6222 30.9636 21.2187C33.5295 19.6648 35.0154 16.9199 36.3195 14.3467C36.5597 13.8345 36.7849 13.3286 37.0002 12.7915L35.935 12.3005C34.8673 14.1503 33.659 15.9951 32.2279 17.4968H32.2304ZM19.9667 3.07897C19.9754 3.07897 19.9804 3.08021 19.9804 3.08146C19.9766 3.08146 19.9654 3.08146 19.9518 3.07897C19.9567 3.07897 19.963 3.07897 19.9667 3.07897Z" fill="#1A1A1A"/>
</svg>
